<svg xmlns="http://www.w3.org/2000/svg" version="1.1" width="266.5mm" height="115.9mm" viewBox = " 0 0 944.292115 410.66962900000004" >
<!-- Front--> 
<g transform="translate(22.5000185, 22.5000185) " > 
<polygon style="stroke:#000000; fill:none; stroke-width:0.90000074" points="0, 0 27.106321499999996, 0 27.106321499999996, 10.62993 54.21264299999999, 10.62993 54.21264299999999, 0 75.47250299999999, 0 75.47250299999999, 10.62993 96.73236299999999, 10.62993 96.73236299999999, 0 117.992223, 0 117.992223, 10.62993 139.252083, 10.62993 139.252083, 0 160.511943, 0 160.511943, 10.62993 181.77180299999998, 10.62993 181.77180299999998, 0 203.03166299999998, 0 203.03166299999998, 10.62993 224.29152299999998, 10.62993 224.29152299999998, 0 245.551383, 0 245.551383, 10.62993 266.811243, 10.62993 266.811243, 0 288.071103, 0 288.071103, 10.62993 315.17742450000003, 10.62993 315.17742450000003, 0 342.28374599999995, 0 342.28374599999995, 32.4212865 331.65381599999995, 32.4212865 331.65381599999995, 64.842573 342.28374599999995, 64.842573 342.28374599999995, 86.102433 331.65381599999995, 86.102433 331.65381599999995, 118.5237195 342.28374599999995, 118.5237195 342.283746, 150.945006 315.17742450000003, 150.945006 315.17742450000003, 140.315076 288.071103, 140.315076 288.071103, 150.945006 266.811243, 150.945006 266.811243, 140.315076 245.551383, 140.315076 245.551383, 150.945006 224.29152299999998, 150.945006 224.29152299999998, 140.315076 203.03166299999998, 140.315076 203.03166299999998, 150.945006 181.77180299999998, 150.945006 181.77180299999998, 140.315076 160.511943, 140.315076 160.511943, 150.945006 139.252083, 150.945006 139.252083, 140.315076 117.992223, 140.315076 117.992223, 150.945006 96.73236299999999, 150.945006 96.73236299999999, 140.315076 75.47250299999999, 140.315076 75.47250299999999, 150.945006 54.21264299999999, 150.945006 54.21264299999999, 140.315076 27.106321499999996, 140.315076 27.106321499999996, 150.945006 0, 150.945006 0, 118.5237195 10.62993, 118.5237195 10.62993, 86.102433 0, 86.102433 0, 64.842573 10.62993, 64.842573 10.62993, 32.4212865 0, 32.4212865 "/> 
</g>
<!-- Back--> 
<g transform="translate(364.78376449999996, 22.5000185) " > 
<polygon style="stroke:#000000; fill:none; stroke-width:0.90000074" points="0, 0 27.106321499999996, 0 27.106321499999996, 10.62993 54.21264299999999, 10.62993 54.21264299999999, 0 75.47250299999999, 0 75.47250299999999, 10.62993 96.73236299999999, 10.62993 96.73236299999999, 0 117.992223, 0 117.992223, 10.62993 139.252083, 10.62993 139.252083, 0 160.511943, 0 160.511943, 10.62993 181.77180299999998, 10.62993 181.77180299999998, 0 203.03166299999998, 0 203.03166299999998, 10.62993 224.29152299999998, 10.62993 224.29152299999998, 0 245.551383, 0 245.551383, 10.62993 266.811243, 10.62993 266.811243, 0 288.071103, 0 288.071103, 10.62993 315.17742450000003, 10.62993 315.17742450000003, 0 342.28374599999995, 0 342.28374599999995, 32.4212865 331.65381599999995, 32.4212865 331.65381599999995, 64.842573 342.28374599999995, 64.842573 342.28374599999995, 86.102433 331.65381599999995, 86.102433 331.65381599999995, 118.5237195 342.28374599999995, 118.5237195 342.283746, 150.945006 315.17742450000003, 150.945006 315.17742450000003, 140.315076 288.071103, 140.315076 288.071103, 150.945006 266.811243, 150.945006 266.811243, 140.315076 245.551383, 140.315076 245.551383, 150.945006 224.29152299999998, 150.945006 224.29152299999998, 140.315076 203.03166299999998, 140.315076 203.03166299999998, 150.945006 181.77180299999998, 150.945006 181.77180299999998, 140.315076 160.511943, 140.315076 160.511943, 150.945006 139.252083, 150.945006 139.252083, 140.315076 117.992223, 140.315076 117.992223, 150.945006 96.73236299999999, 150.945006 96.73236299999999, 140.315076 75.47250299999999, 140.315076 75.47250299999999, 150.945006 54.21264299999999, 150.945006 54.21264299999999, 140.315076 27.106321499999996, 140.315076 27.106321499999996, 150.945006 0, 150.945006 0, 118.5237195 10.62993, 118.5237195 10.62993, 86.102433 0, 86.102433 0, 64.842573 10.62993, 64.842573 10.62993, 32.4212865 0, 32.4212865 "/> 
</g>
<!-- Left--> 
<g transform="translate(707.0675104999999, 22.5000185) " > 
<polygon style="stroke:#000000; fill:none; stroke-width:0.90000074" points="10.62993, 0 27.1063215, 0 27.1063215, 10.62993 54.212643, 10.62993 54.212643, 0 75.472503, 0 75.472503, 10.62993 96.73236299999999, 10.62993 96.73236299999999, 0 117.992223, 0 117.992223, 10.62993 139.252083, 10.62993 139.252083, 0 160.511943, 0 160.511943, 10.62993 187.6182645, 10.62993 187.6182645, 0 204.09465600000001, 0 204.09465600000001, 32.4212865 214.72458600000002, 32.4212865 214.72458600000002, 64.842573 204.09465600000001, 64.842573 204.09465600000001, 86.102433 214.72458600000002, 86.102433 214.72458600000002, 118.5237195 204.09465600000001, 118.5237195 204.094656, 150.945006 187.6182645, 150.945006 187.6182645, 140.315076 160.511943, 140.315076 160.511943, 150.945006 139.252083, 150.945006 139.252083, 140.315076 117.992223, 140.315076 117.992223, 150.945006 96.73236299999999, 150.945006 96.73236299999999, 140.315076 75.472503, 140.315076 75.472503, 150.945006 54.212643, 150.945006 54.212643, 140.315076 27.1063215, 140.315076 27.1063215, 150.945006 10.62993, 150.945006 10.62993, 118.5237195 0, 118.5237195 0, 86.102433 10.62993, 86.102433 10.62993, 64.842573 0, 64.842573 0, 32.4212865 10.62993, 32.4212865 "/> 
</g>
<!-- Right--> 
<g transform="translate(707.0675104999999, 173.44502450000002) " > 
<polygon style="stroke:#000000; fill:none; stroke-width:0.90000074" points="10.62993, 0 27.1063215, 0 27.1063215, 10.62993 54.212643, 10.62993 54.212643, 0 75.472503, 0 75.472503, 10.62993 96.73236299999999, 10.62993 96.73236299999999, 0 117.992223, 0 117.992223, 10.62993 139.252083, 10.62993 139.252083, 0 160.511943, 0 160.511943, 10.62993 187.6182645, 10.62993 187.6182645, 0 204.09465600000001, 0 204.09465600000001, 32.4212865 214.72458600000002, 32.4212865 214.72458600000002, 64.842573 204.09465600000001, 64.842573 204.09465600000001, 86.102433 214.72458600000002, 86.102433 214.72458600000002, 118.5237195 204.09465600000001, 118.5237195 204.094656, 150.945006 187.6182645, 150.945006 187.6182645, 140.315076 160.511943, 140.315076 160.511943, 150.945006 139.252083, 150.945006 139.252083, 140.315076 117.992223, 140.315076 117.992223, 150.945006 96.73236299999999, 150.945006 96.73236299999999, 140.315076 75.472503, 140.315076 75.472503, 150.945006 54.212643, 150.945006 54.212643, 140.315076 27.1063215, 140.315076 27.1063215, 150.945006 10.62993, 150.945006 10.62993, 118.5237195 0, 118.5237195 0, 86.102433 10.62993, 86.102433 10.62993, 64.842573 0, 64.842573 0, 32.4212865 10.62993, 32.4212865 "/> 
</g>
<!-- Top--> 
<g transform="translate(22.5000185, 173.44502450000002) " > 
<polygon style="stroke:#000000; fill:none; stroke-width:0.90000074" points="10.62993, 10.62993 27.106321499999996, 10.62993 27.106321499999996, 0 54.21264299999999, 0 54.21264299999999, 10.62993 75.47250299999999, 10.62993 75.47250299999999, 0 96.73236299999999, 0 96.73236299999999, 10.62993 117.992223, 10.62993 117.992223, 0 139.252083, 0 139.252083, 10.62993 160.511943, 10.62993 160.511943, 0 181.77180299999998, 0 181.77180299999998, 10.62993 203.03166299999998, 10.62993 203.03166299999998, 0 224.29152299999998, 0 224.29152299999998, 10.62993 245.551383, 10.62993 245.551383, 0 266.811243, 0 266.811243, 10.62993 288.071103, 10.62993 288.071103, 0 315.17742450000003, 0 315.17742450000003, 10.62993 331.65381599999995, 10.62993 331.65381599999995, 27.1063215 342.28374599999995, 27.1063215 342.28374599999995, 54.212643 331.65381599999995, 54.212643 331.65381599999995, 75.472503 342.28374599999995, 75.472503 342.28374599999995, 96.73236299999999 331.65381599999995, 96.73236299999999 331.65381599999995, 117.992223 342.28374599999995, 117.992223 342.28374599999995, 139.252083 331.65381599999995, 139.252083 331.65381599999995, 160.511943 342.28374599999995, 160.511943 342.28374599999995, 187.6182645 331.65381599999995, 187.6182645 331.653816, 204.09465600000001 315.17742450000003, 204.09465600000001 315.17742450000003, 214.72458600000002 288.071103, 214.72458600000002 288.071103, 204.09465600000001 266.811243, 204.09465600000001 266.811243, 214.72458600000002 245.551383, 214.72458600000002 245.551383, 204.09465600000001 224.29152299999998, 204.09465600000001 224.29152299999998, 214.72458600000002 203.03166299999998, 214.72458600000002 203.03166299999998, 204.09465600000001 181.77180299999998, 204.09465600000001 181.77180299999998, 214.72458600000002 160.511943, 214.72458600000002 160.511943, 204.09465600000001 139.252083, 204.09465600000001 139.252083, 214.72458600000002 117.992223, 214.72458600000002 117.992223, 204.09465600000001 96.73236299999999, 204.09465600000001 96.73236299999999, 214.72458600000002 75.47250299999999, 214.72458600000002 75.47250299999999, 204.09465600000001 54.21264299999999, 204.09465600000001 54.21264299999999, 214.72458600000002 27.106321499999996, 214.72458600000002 27.106321499999996, 204.09465600000001 10.62993, 204.094656 10.62993, 187.6182645 0, 187.6182645 0, 160.511943 10.62993, 160.511943 10.62993, 139.252083 0, 139.252083 0, 117.992223 10.62993, 117.992223 10.62993, 96.73236299999999 0, 96.73236299999999 0, 75.472503 10.62993, 75.472503 10.62993, 54.212643 0, 54.212643 0, 27.1063215 10.62993, 27.1063215 "/> 
</g>
<!-- Bottom--> 
<g transform="translate(364.78376449999996, 173.44502450000002) " > 
<polygon style="stroke:#000000; fill:none; stroke-width:0.90000074" points="10.62993, 10.62993 27.106321499999996, 10.62993 27.106321499999996, 0 54.21264299999999, 0 54.21264299999999, 10.62993 75.47250299999999, 10.62993 75.47250299999999, 0 96.73236299999999, 0 96.73236299999999, 10.62993 117.992223, 10.62993 117.992223, 0 139.252083, 0 139.252083, 10.62993 160.511943, 10.62993 160.511943, 0 181.77180299999998, 0 181.77180299999998, 10.62993 203.03166299999998, 10.62993 203.03166299999998, 0 224.29152299999998, 0 224.29152299999998, 10.62993 245.551383, 10.62993 245.551383, 0 266.811243, 0 266.811243, 10.62993 288.071103, 10.62993 288.071103, 0 315.17742450000003, 0 315.17742450000003, 10.62993 331.65381599999995, 10.62993 331.65381599999995, 27.1063215 342.28374599999995, 27.1063215 342.28374599999995, 54.212643 331.65381599999995, 54.212643 331.65381599999995, 75.472503 342.28374599999995, 75.472503 342.28374599999995, 96.73236299999999 331.65381599999995, 96.73236299999999 331.65381599999995, 117.992223 342.28374599999995, 117.992223 342.28374599999995, 139.252083 331.65381599999995, 139.252083 331.65381599999995, 160.511943 342.28374599999995, 160.511943 342.28374599999995, 187.6182645 331.65381599999995, 187.6182645 331.653816, 204.09465600000001 315.17742450000003, 204.09465600000001 315.17742450000003, 214.72458600000002 288.071103, 214.72458600000002 288.071103, 204.09465600000001 266.811243, 204.09465600000001 266.811243, 214.72458600000002 245.551383, 214.72458600000002 245.551383, 204.09465600000001 224.29152299999998, 204.09465600000001 224.29152299999998, 214.72458600000002 203.03166299999998, 214.72458600000002 203.03166299999998, 204.09465600000001 181.77180299999998, 204.09465600000001 181.77180299999998, 214.72458600000002 160.511943, 214.72458600000002 160.511943, 204.09465600000001 139.252083, 204.09465600000001 139.252083, 214.72458600000002 117.992223, 214.72458600000002 117.992223, 204.09465600000001 96.73236299999999, 204.09465600000001 96.73236299999999, 214.72458600000002 75.47250299999999, 214.72458600000002 75.47250299999999, 204.09465600000001 54.21264299999999, 204.09465600000001 54.21264299999999, 214.72458600000002 27.106321499999996, 214.72458600000002 27.106321499999996, 204.09465600000001 10.62993, 204.094656 10.62993, 187.6182645 0, 187.6182645 0, 160.511943 10.62993, 160.511943 10.62993, 139.252083 0, 139.252083 0, 117.992223 10.62993, 117.992223 10.62993, 96.73236299999999 0, 96.73236299999999 0, 75.472503 10.62993, 75.472503 10.62993, 54.212643 0, 54.212643 0, 27.1063215 10.62993, 27.1063215 "/> 
</g></svg>